HIERARCHY
ROOT Hips
{
  OFFSET 3.13124 94.3669 -3.18751
  CHANNELS  6 Xposition Yposition Zposition Zrotation Xrotation Yrotation
  JOINT LeftUpLeg
  {
    OFFSET 8.64259 1.95398 -2.38835
    CHANNELS 3 Zrotation Xrotation Yrotation
    JOINT LeftLeg
    {
      OFFSET 43.7702 0 0
      CHANNELS 3 Zrotation Xrotation Yrotation
      JOINT LeftFoot
      {
        OFFSET 40.6238 0 0
        CHANNELS 3 Zrotation Xrotation Yrotation
        JOINT LeftToeBase
        {
          OFFSET 12.7242 0 0
          CHANNELS 3 Zrotation Xrotation Yrotation
          End Site
          {
            OFFSET 0 0 0
          }
        }
      }
    }
  }
  JOINT RightUpLeg
  {
    OFFSET -8.2249 1.95398 -2.59336
    CHANNELS 3 Zrotation Xrotation Yrotation
    JOINT RightLeg
    {
      OFFSET 43.5653 0 0
      CHANNELS 3 Zrotation Xrotation Yrotation
      JOINT RightFoot
      {
        OFFSET 40.6238 0 0
        CHANNELS 3 Zrotation Xrotation Yrotation
        JOINT RightToeBase
        {
          OFFSET 12.7242 0 0
          CHANNELS 3 Zrotation Xrotation Yrotation
          End Site
          {
            OFFSET 0 0 0
          }
        }
      }
    }
  }
  JOINT Spine
  {
    OFFSET 0.165834 0.87714 6.61349
    CHANNELS 3 Zrotation Xrotation Yrotation
    JOINT Spine1
    {
      OFFSET 7.38962 1.71661e-005 0
      CHANNELS 3 Zrotation Xrotation Yrotation
      JOINT Spine2
      {
        OFFSET 11.9445 1.14441e-005 0
        CHANNELS 3 Zrotation Xrotation Yrotation
        JOINT Spine3
        {
          OFFSET 14.7254 4.19617e-005 0
          CHANNELS 3 Zrotation Xrotation Yrotation
          JOINT Spine4
          {
            OFFSET 10.9679 0 0
            CHANNELS 3 Zrotation Xrotation Yrotation
            JOINT RightShoulder
            {
              OFFSET 2.46616 -1.6653 3.69651
              CHANNELS 3 Zrotation Xrotation Yrotation
              JOINT RightArm
              {
                OFFSET 13.0012 0 0
                CHANNELS 3 Zrotation Xrotation Yrotation
                JOINT RightForeArm
                {
                  OFFSET 28.7848 1.52588e-005 0
                  CHANNELS 3 Zrotation Xrotation Yrotation
                  JOINT RightHand
                  {
                    OFFSET 26.5688 1.52588e-005 0
                    CHANNELS 3 Zrotation Xrotation Yrotation
                    End Site
                    {
                      OFFSET 0 0 0
                    }
                  }
                }
              }
            }
            JOINT LeftShoulder
            {
              OFFSET 2.38034 -1.29275 -3.75231
              CHANNELS 3 Zrotation Xrotation Yrotation
              JOINT LeftArm
              {
                OFFSET 16.3182 6.10352e-005 0
                CHANNELS 3 Zrotation Xrotation Yrotation
                JOINT LeftForeArm
                {
                  OFFSET 27.0901 0 0
                  CHANNELS 3 Zrotation Xrotation Yrotation
                  JOINT LeftHand
                  {
                    OFFSET 24.5451 1.52588e-005 0
                    CHANNELS 3 Zrotation Xrotation Yrotation
                    End Site
                    {
                      OFFSET 0 0 0
                    }
                  }
                }
              }
            }
            JOINT Neck
            {
              OFFSET 5.0226 -0.0266342 0
              CHANNELS 3 Zrotation Xrotation Yrotation
              JOINT Head
              {
                OFFSET 6.69363 2.86102e-005 0
                CHANNELS 3 Zrotation Xrotation Yrotation
                End Site
                {
                  OFFSET 0 0 0
                }
              }
            }
          }
        }
      }
    }
  }
}
MOTION
Frames:	18
Frame Time:	0.0333333
90.8927 39.4755 -45.0511 -111.192 -39.3041 -89.45 154.357 40.1294 116.701 -157.196 3.34981 3.8568 84.8132 -1.9407 -0.231068 28.7808 4.89048e-006 -4.76629e-006 176.423 76.6525 92.9748 -127.468 -21.9668 -3.43229 93.2377 -2.24159 -1.14389 28.7808 1.74934e-005 2.31642e-005 3.42676 14.7308 -98.3235 -2.59021 4.67133 -14.704 -14.3378 4.027 -14.8895 -36.4154 8.84171 -12.6748 -16.4026 8.84166 -12.6748 102.471 30.9264 -87.5046 56.6202 -5.04575 -1.19898 -12.9777 -17.7746 -31.8457 -45.1128 5.34266 -18.1678 -156.416 -51.1795 -4.30469 -30.3244 -5.0386 -50.7672 4.12267 48.4587 -5.20285 23.3628 -6.87859 -33.4801 -46.8472 -25.8713 27.8301 -17.9786 -14.5686 -41.9437 
90.6464 38.0684 -45.4012 -110.075 -38.6053 -88.8919 153.425 38.5445 117.305 -158.654 4.36455 3.95583 89.3061 -4.21315 -0.747808 28.7808 4.89048e-006 -4.76629e-006 174.069 79.6996 95.4373 -129.22 -22.1041 -3.4982 92.5966 -2.65846 -1.25492 28.7808 1.74934e-005 2.31642e-005 3.53845 14.5848 -98.1341 -2.27699 5.00515 -14.6046 -14.0224 4.36472 -14.8046 -36.1243 9.13159 -12.4795 -16.1116 9.13155 -12.4794 102.456 31.8611 -85.5874 58.2343 -6.6233 -0.193938 -14.6434 -18.9458 -34.3643 -47.2301 5.1122 -16.9862 -156.633 -51.2387 -4.48361 -30.3009 -5.16233 -50.2115 4.26471 50.1748 -5.34618 23.8129 -6.93594 -33.2176 -46.698 -25.933 27.6815 -18.7279 -14.421 -42.1062 
90.4201 36.6331 -45.6867 -108.973 -38.0351 -88.4119 152.701 36.5405 117.749 -160.232 5.75473 4.07232 94.1261 -6.19373 -0.960893 28.7808 4.89048e-006 -4.76629e-006 171.255 82.7367 98.3101 -130.955 -22.4064 -3.57577 92.1115 -2.94557 -1.33085 28.7808 1.74934e-005 2.31642e-005 3.61881 14.4339 -97.9411 -1.93838 5.31124 -14.5129 -13.6817 4.67445 -14.7261 -35.8064 9.39715 -12.2996 -15.7937 9.39711 -12.2996 102.411 32.958 -83.7492 59.9442 -8.4626 1.31643 -16.2902 -19.2485 -37.6447 -48.6613 4.6054 -15.4505 -157.274 -51.5205 -4.93949 -30.4559 -5.14508 -49.5493 4.4258 51.9626 -5.50861 24.9061 -7.13387 -32.8217 -46.5635 -25.9779 27.529 -19.8603 -14.0588 -42.5523 
90.222 35.2947 -45.9001 -107.846 -37.6267 -87.9519 152.476 34.6202 117.744 -161.686 6.43906 4.14821 98.8433 -7.86164 -0.963497 28.7808 4.89048e-006 -4.76629e-006 166.001 85.6546 103.609 -132.547 -22.4468 -3.63168 91.625 -3.12698 -1.37978 28.7808 1.74934e-005 2.31642e-005 3.68508 14.2702 -97.7579 -1.57703 5.5887 -14.4103 -13.3182 4.95603 -14.6357 -35.4653 9.63215 -12.1177 -15.4526 9.63207 -12.1177 102.347 33.6801 -82.4254 61.3944 -9.64327 2.23284 -17.5096 -20.0489 -39.1086 -50.4936 4.55231 -14.9449 -157.656 -51.6597 -5.22848 -30.2174 -5.49598 -48.8485 4.64101 54.1202 -5.72545 25.287 -7.4678 -33.7081 -46.7662 -25.962 26.9673 -20.5886 -13.8883 -42.5806 
90.0063 34.2224 -46.1984 -106.729 -37.1985 -87.5741 152.51 33.0592 117.57 -162.757 6.5376 4.17705 102.792 -9.42433 -0.883082 28.7808 4.89048e-006 -4.76629e-006 140.95 88.0734 128.757 -133.795 -22.3835 -3.67064 91.0386 -3.42922 -1.46724 28.7808 1.74934e-005 2.31642e-005 3.73931 14.111 -97.6022 -1.23104 5.8237 -14.2948 -12.97 5.19574 -14.5305 -35.1386 9.82281 -11.9358 -15.1259 9.82273 -11.9358 102.366 33.9937 -82.5645 62.3508 -9.76815 3.38153 -18.0898 -20.7487 -39.3437 -52.6005 4.92129 -15.2174 -157.759 -51.6921 -5.31022 -30.2905 -5.55269 -48.1885 4.74928 55.1186 -5.83441 26.8879 -7.80793 -33.3518 -47.3951 -25.9356 26.3463 -20.9778 -13.7239 -42.8151 
89.8161 33.5359 -46.5506 -105.576 -36.9311 -87.3979 152.321 32.0777 117.752 -163.25 7.21916 4.21193 105.964 -10.264 -0.690408 28.7808 4.89048e-006 -4.76629e-006 58.9616 88.4824 -149.171 -134.59 -22.1113 -3.68282 90.427 -3.83742 -1.59028 28.7808 1.74934e-005 2.31642e-005 3.74732 13.9506 -97.4628 -0.892008 5.94414 -14.1753 -12.6293 5.32112 -14.4164 -34.8135 9.9009 -11.7845 -14.8008 9.90086 -11.7845 102.416 33.9247 -83.5008 62.6831 -9.18454 4.45442 -18.647 -21.7795 -39.1256 -53.8942 5.08292 -15.2508 -158.065 -51.7405 -5.58198 -30.1286 -5.81287 -47.5879 4.91049 56.5082 -5.99665 27.7934 -8.05356 -33.3349 -48.5919 -25.8333 25.4718 -20.6726 -13.7902 -42.5546 
89.7532 33.2969 -46.9373 -104.444 -36.7589 -87.1924 152.352 32.7541 117.717 -163.302 6.47852 4.15401 107.048 -11.5335 -0.735037 28.7808 4.89048e-006 -4.76629e-006 30.2788 87.341 -120.43 -134.74 -21.758 -3.66462 90.0104 -4.11791 -1.68377 28.7808 1.74934e-005 2.31642e-005 3.74414 13.8356 -97.3691 -0.657087 5.98187 -13.9803 -12.3916 5.36743 -14.2238 -34.5939 9.8839 -11.5824 -14.5812 9.88383 -11.5824 102.479 33.1639 -85.0238 61.9063 -7.93933 4.82985 -19.1702 -23.2147 -38.4177 -54.3918 5.34123 -15.6561 -158.478 -51.7491 -5.98252 -29.5445 -6.38593 -47.2678 5.05422 57.6588 -6.1412 28.9407 -8.38306 -33.3892 -49.525 -25.7426 24.8177 -20.303 -13.949 -42.041 
88.7746 34.5549 -48.5655 -104.917 -33.5421 -87.9864 152.015 29.562 118.952 -160.343 9.02675 4.10725 106.685 -14.0104 -1.15419 28.7808 4.89048e-006 -4.76629e-006 77.6726 83.8795 -166.847 -133.36 -21.5283 -3.63148 87.4182 -8.79559 -3.24729 28.7808 1.74934e-005 2.31642e-005 3.88982 14.1425 -97.1292 -1.25348 6.43703 -13.3797 -12.9802 5.84722 -13.6437 -35.248 10.1401 -10.8692 -15.2352 10.14 -10.8692 102.49 31.6893 -86.7341 60.2832 -6.65141 3.89699 -19.0463 -24.147 -37.186 -54.5504 5.47585 -15.8827 -158.413 -51.8154 -5.87768 -28.8757 -6.90577 -47.6843 5.16376 58.4848 -6.25134 30.1414 -8.59659 -32.9877 -49.8966 -25.6552 24.8163 -19.6266 -14.1143 -41.4658 
90.2203 34.8526 -47.7248 -101.893 -37.2509 -86.7055 152.112 39.6067 118.298 -160.834 2.67388 3.82239 102.578 -11.96 -1.3607 28.7808 4.89048e-006 -4.76629e-006 24.4194 86.9962 -114.543 -132.173 -20.7487 -3.51596 89.703 -4.88185 -1.93776 28.7808 1.74934e-005 2.31642e-005 3.64172 13.7611 -97.3211 -0.557229 5.62882 -13.5061 -12.2873 5.03947 -13.7355 -34.5067 9.38778 -11.2309 -14.494 9.38774 -11.2309 102.396 29.0574 -91.2954 57.6156 -3.86018 2.94847 -17.0017 -24.1918 -33.3451 -55.0842 5.98778 -16.7471 -158.519 -51.9028 -5.92545 -28.0227 -7.58154 -48.2016 5.26222 59.1939 -6.35027 31.047 -8.41286 -31.5188 -51.1733 -25.6402 24.5225 -18.0447 -14.647 -40.6244 
89.7977 37.3456 -49.2312 -101.896 -34.9743 -87.7655 152.501 40.822 118.753 -156.648 1.934 3.58983 97.6371 -13.7241 -2.33967 28.7808 4.89048e-006 -4.76629e-006 88.193 85.6589 -177.568 -128.97 -19.8521 -3.37928 88.5485 -8.83161 -3.21353 28.7808 1.74934e-005 2.31642e-005 3.63023 14.0373 -97.1545 -1.13202 5.5808 -12.8201 -12.8553 5.02117 -13.0484 -35.1198 9.13246 -10.5851 -15.1071 9.13239 -10.585 101.914 25.518 -96.8351 53.6261 -0.10254 0.372874 -13.3078 -24.092 -25.9566 -55.9583 7.33572 -19.0705 -158.574 -52.1167 -5.8449 -26.9028 -8.45772 -49.0808 5.59039 61.3435 -6.68 28.1128 -5.87864 -25.3802 -52.73 -25.6047 24.4252 -15.7127 -15.2727 -39.597 
91.3025 39.0878 -48.7164 -98.6994 -38.8337 -86.3305 152.518 50.5374 118.542 -154.799 -2.03983 3.35372 92.3684 -9.35711 -1.95479 28.7808 4.89048e-006 -4.76629e-006 160.285 88.5087 109.406 -125.203 -17.4545 -3.10106 94.5525 -7.67775 -2.54335 28.7808 1.74934e-005 2.31642e-005 3.36418 13.771 -97.3495 -0.680334 4.57365 -12.8404 -12.4083 4.00937 -13.0266 -34.6173 8.19793 -10.8968 -14.6047 8.19789 -10.8968 100.976 21.3015 -101.678 48.7397 4.00848 -6.33224 -6.74532 -23.32 -11.1942 -56.9421 10.3524 -24.3588 -157.711 -52.2172 -4.9248 -25.9842 -9.15866 -50.1124 5.42941 60.3269 -6.51831 33.0119 -8.15606 -29.2928 -53.7796 -25.5756 24.691 -13.2073 -15.8776 -38.4482 
91.7106 41.8887 -49.2829 -97.228 -39.4109 -86.0071 152.838 53.6685 118.805 -150.721 -2.86455 3.15997 88.2206 -8.35194 -2.08709 28.7808 4.89048e-006 -4.76629e-006 172.962 87.9295 96.6732 -122.412 -17.6624 -3.04814 88.7699 -5.26179 -2.10782 28.7808 1.74934e-005 2.31642e-005 3.16407 13.8593 -97.2426 -0.877014 4.10567 -12.4566 -12.6026 3.55793 -12.6215 -34.8162 7.63986 -10.6802 -14.8034 7.63981 -10.6801 99.6705 16.7533 -105.859 43.0224 6.99076 -9.58697 -4.22752 -22.4492 -4.97555 -56.7092 11.226 -26.0452 -156.396 -52.2605 -3.59834 -24.8829 -9.99297 -51.7208 5.61549 61.4956 -6.70523 30.7481 -5.81989 -23.4945 -54.47 -25.4544 25.1002 -10.6439 -16.3305 -37.0478 
92.266 44.922 -49.6774 -95.7547 -40.0691 -85.9166 154.549 55.9121 117.665 -146.2 -3.15981 3.00193 85.234 -6.85572 -1.87801 28.7808 4.89048e-006 -4.76629e-006 -177.281 85.7941 86.7311 -118.343 -16.46 -2.87608 87.1682 -4.83615 -2.01469 28.7808 1.74934e-005 2.31642e-005 2.96779 13.9928 -97.0248 -1.16259 3.66431 -11.916 -12.8842 3.14022 -12.0628 -35.1147 7.05856 -10.2926 -15.102 7.05852 -10.2926 98.04 11.5776 -108.99 36.9008 9.43171 -10.5627 -4.21453 -22.1639 -4.9732 -55.6859 10.6539 -25.42 -153.724 -51.7413 -1.228 -23.5315 -11.1033 -53.4674 5.67368 61.8425 -6.76366 29.8696 -4.70624 -20.2441 -54.858 -24.9667 24.9743 -7.32211 -16.7901 -35.0166 
92.6963 47.9767 -50.2813 -94.27 -40.8369 -85.1361 154.597 56.7707 118.241 -141.619 -2.20805 2.91939 83.1053 -5.83108 -1.69651 28.7808 4.89048e-006 -4.76629e-006 178.372 83.1852 91.1379 -113.645 -14.3323 -2.63416 86.8615 -5.44421 -2.22768 28.7808 1.74934e-005 2.31642e-005 2.80841 14.1134 -96.8407 -1.41515 3.30463 -11.5119 -13.1339 2.79831 -11.6436 -35.3761 6.59549 -10.0119 -15.3633 6.59547 -10.0119 96.4572 7.43628 -111.971 31.4832 11.6676 -11.4772 -4.2875 -23.7425 -4.99312 -54.1623 9.42408 -23.7 -150.428 -51.0335 1.70191 -22.3144 -12.1516 -55.1795 5.65839 61.7375 -6.74863 28.8277 -3.38498 -16.1367 -54.8031 -24.5048 25.2884 -4.28068 -16.9932 -33.3098 
93.0873 50.9294 -50.813 -93.0072 -41.6562 -84.1269 154.877 57.0038 118.546 -137.199 -1.90347 2.81308 81.4041 -4.45407 -1.3079 28.7808 4.89048e-006 -4.76629e-006 175.674 80.218 94.0025 -108.644 -12.077 -2.38023 87.2344 -6.35355 -2.51604 28.7808 1.74934e-005 2.31642e-005 2.70417 14.2104 -96.6792 -1.61644 3.06033 -11.1465 -13.3325 2.56997 -11.2682 -35.5881 6.25399 -9.73421 -15.5754 6.25396 -9.7342 95.0085 3.76004 -114.055 26.842 13.5813 -12.7602 -4.35236 -25.1189 -5.01247 -50.9462 8.17791 -22.449 -147.278 -50.0944 4.38997 -20.6829 -13.7001 -56.3476 5.62537 61.525 -6.7158 27.5302 -2.74933 -14.3041 -54.7207 -23.8317 24.9587 -1.55451 -17.01 -31.3947 
93.5509 53.8091 -51.0599 -91.8696 -42.1626 -83.6461 157.373 57.2093 116.435 -132.758 -2.69594 2.64629 79.8653 -3.11147 -0.876577 28.7808 4.89048e-006 -4.76629e-006 177.003 77.3435 92.6141 -103.632 -10.6488 -2.17806 87.4488 -8.09183 -3.07246 28.7808 1.74934e-005 2.31642e-005 2.60531 14.2553 -96.6118 -1.71512 2.81341 -10.9635 -13.4301 2.33117 -11.0747 -35.6883 5.96403 -9.63232 -15.6755 5.96401 -9.63229 94.383 3.22402 -116.099 24.0757 14.814 -12.6495 -4.44993 -27.1386 -5.04452 -46.9197 6.57507 -20.4458 -146.033 -49.9235 5.61386 -20.107 -14.2211 -58.0459 5.58037 61.282 -6.66994 26.174 -2.21223 -12.6976 -54.4957 -23.6877 25.5679 -0.31689 -16.9759 -31.0766 
93.9712 56.4552 -51.4012 -90.7479 -42.6211 -82.8042 158.4 56.6529 115.937 -128.507 -1.82787 2.5752 79.4429 -2.29142 -0.569895 28.7808 4.89048e-006 -4.76629e-006 176.498 74.8181 93.2456 -98.7805 -9.43209 -1.99439 86.939 -9.73298 -3.64392 28.7808 1.74934e-005 2.31642e-005 2.58665 14.2942 -96.539 -1.79211 2.76305 -10.8376 -13.5061 2.28628 -10.9468 -35.7703 5.87726 -9.52709 -15.7575 5.87723 -9.52709 94.4624 3.77783 -116.375 22.8239 15.33 -13.8544 -4.53059 -28.7615 -5.07354 -40.569 4.58663 -17.7531 -144.216 -49.4054 7.23214 -19.7669 -14.5331 -59.503 5.6034 61.4225 -6.69307 25.3087 -1.72656 -11 -53.7635 -23.4719 25.8746 0.755728 -17.0021 -30.6439 
94.4623 58.9578 -51.651 -89.789 -42.6848 -82.2187 160.312 55.8797 114.432 -124.254 -2.10466 2.43631 79.3978 -1.88139 -0.402199 28.7808 4.89048e-006 -4.76629e-006 176.536 72.5117 93.2991 -94.0404 -8.84551 -1.84937 85.967 -10.9844 -4.14289 28.7808 1.74934e-005 2.31642e-005 2.5938 14.3123 -96.4695 -1.8303 2.76331 -10.7043 -13.5431 2.29301 -10.8137 -35.8148 5.83928 -9.39893 -15.8021 5.83925 -9.39894 94.9041 5.47499 -116.653 23.0877 15.1555 -14.9154 -4.37673 -25.6289 -5.02011 -36.2154 3.74602 -16.8087 -142.739 -49.1132 8.65597 -19.8207 -14.4496 -60.4172 5.60032 61.4039 -6.69 24.188 -1.15849 -8.93036 -53.2001 -23.4634 26.388 1.45381 -17.0828 -30.4644 
